<?xml version="1.0" encoding="utf-8"?>
<!-- Generator: Adobe Illustrator 19.0.0, SVG Export Plug-In . SVG Version: 6.00 Build 0)  -->
<svg version="1.1" id="Layer_1" xmlns:sketch="http://www.bohemiancoding.com/sketch/ns"
	 xmlns="http://www.w3.org/2000/svg" xmlns:xlink="http://www.w3.org/1999/xlink" x="0px" y="0px" viewBox="-275 367 60 60"
	 style="enable-background:new -275 367 60 60;" xml:space="preserve">
<style type="text/css">
	.st0{fill:#7C7B7D;}
</style>
<title>Slice 1</title>
<description>Created with Sketch (http://www.bohemiancoding.com/sketch)</description>
<g>
	<g>
		<path class="st0" d="M-245,367c-16.5,0-30,13.5-30,30s13.5,30,30,30s30-13.5,30-30S-228.5,367-245,367L-245,367z M-245,421.5
			c-13.5,0-24.5-11-24.5-24.6c0-13.5,11-24.5,24.5-24.5s24.5,11,24.5,24.5C-220.5,410.5-231.5,421.5-245,421.5L-245,421.5z"/>
	</g>
</g>
<path class="st0" d="M-254.2,397.5c0,5.5,4.5,10,10,10s10-4.5,10-10c0-5.3-4.2-9.7-9.4-10c0,0.4,0,0.8,0,1.2v1.1
	c0,0.9-0.6,1.2-1.4,0.8l-2.2-1.2c-0.8-0.4-2-1.2-2.8-1.6l-2.2-1.2c-0.8-0.4-0.8-1.2,0-1.6l2.2-1.2c0.8-0.4,2-1.2,2.8-1.6l2.2-1.2
	c0.8-0.4,1.4-0.1,1.4,0.7c0,0.6,0,1.3,0,1.9c7.4,0.3,13.4,6.5,13.4,14c0,7.7-6.3,14-14,14s-14-6.3-14-14"/>
<path d="M-258.2,397.5h4"/>
</svg>
