<svg xmlns="http://www.w3.org/2000/svg" xmlns:xlink="http://www.w3.org/1999/xlink" version="1.1" x="0px" y="0px" viewBox="0 0 87.57 109.97999999999999" enable-background="new 0 0 87.57 87.984" xml:space="preserve"><g display="none"><path display="inline" fill="#000000" d="M72.63,41.766c0.062,0.026,0.131,0.044,0.193,0.07   C71.62,27.741,60.355,16.532,46.232,15.418C42.677,6.619,34.068,0.402,23.995,0.4C10.74,0.403,0.003,11.144,0,24.395   c0.002,10.075,6.216,18.68,15.017,22.236c1.113,14.121,12.321,25.391,26.419,26.592c-0.021-0.05-0.035-0.104-0.055-0.153   c3.583,8.738,12.164,14.899,22.198,14.902C76.831,87.969,87.57,77.23,87.57,63.978C87.57,53.931,81.392,45.34,72.63,41.766z    M70.64,41.046c-0.018-0.006-0.039-0.01-0.059-0.015C70.601,41.036,70.622,41.04,70.64,41.046z M7.315,24.395   c0.015-9.21,7.469-16.664,16.68-16.684c6.087,0.014,11.391,3.284,14.304,8.153C26.789,18.128,17.728,27.19,15.463,38.698   C10.595,35.786,7.325,30.482,7.315,24.395z M63.579,80.656c-9.215-0.016-16.666-7.467-16.683-16.679   c0.017-9.212,7.468-16.663,16.683-16.681c9.208,0.018,16.663,7.473,16.679,16.681C80.242,73.186,72.787,80.641,63.579,80.656z"/></g><g><polygon fill="#000000" points="78.667,87.984 78.667,45.819 54.691,59.502 54.691,45.819 30.408,59.68 30.408,59.68 26.524,59.68    24.158,29.933 16.704,29.933 14.338,59.68 10.031,59.68 10.031,87.984  "/><path fill="#000000" d="M16.704,28.535h7.454c0,0,9.039-0.721,22.705-8.979C57.738,12.984,54.164,7.446,64.792,0.14   C51.508-1.022,49.863,5.31,46.21,8.962c-3.653,3.654-16.537-3.426-25.587,5.624C13.732,21.478,16.704,28.535,16.704,28.535z"/></g></svg>