<?xml version="1.0" encoding="utf-8"?>
<!-- Generator: Adobe Illustrator 19.0.0, SVG Export Plug-In . SVG Version: 6.00 Build 0)  -->
<svg version="1.1" id="Layer_1" xmlns:sketch="http://www.bohemiancoding.com/sketch/ns"
	 xmlns="http://www.w3.org/2000/svg" xmlns:xlink="http://www.w3.org/1999/xlink" x="0px" y="0px" viewBox="-275 367 60 60"
	 style="enable-background:new -275 367 60 60;" xml:space="preserve">
<style type="text/css">
	.st0{fill:#7C7B7D;}
</style>
<title>Slice 1</title>
<description>Created with Sketch (http://www.bohemiancoding.com/sketch)</description>
<g>
	<g>
		<path class="st0" d="M-245,367c-16.5,0-30,13.5-30,30s13.5,30,30,30s30-13.5,30-30S-228.5,367-245,367L-245,367z M-245,421.5
			c-13.5,0-24.5-11-24.5-24.6c0-13.5,11-24.5,24.5-24.5s24.5,11,24.5,24.5C-220.5,410.5-231.5,421.5-245,421.5L-245,421.5z"/>
		<path class="st0" d="M-232.7,394.2c0.9-0.9,0.9-2.4,0-3.3s-2.4-0.9-3.3,0l-9,9.1l-9-9.1c-0.9-0.9-2.4-0.9-3.3,0
			c-0.5,0.5-0.7,1.1-0.7,1.7c0,0.6,0.2,1.2,0.7,1.7l10.7,10.7c0.9,0.9,2.4,0.9,3.3,0L-232.7,394.2z"/>
	</g>
</g>
</svg>
