<svg xmlns="http://www.w3.org/2000/svg" xmlns:xlink="http://www.w3.org/1999/xlink" xmlns:sketch="http://www.bohemiancoding.com/sketch/ns" viewBox="0 0 22 27.5" version="1.1" x="0px" y="0px"><title>editor_zoom-in_outline_stroke</title><description>Created with Sketch.</description><defs><path d="M8,8 L8,5 L9,5 L9,8 L12,8 L12,9 L9,9 L9,12 L8,12 L8,9 L5,9 L5,8 L8,8 Z M13.3553211,15.4777192 C11.9788682,16.437293 10.3051477,17 8.5,17 C3.80557939,17 0,13.1944206 0,8.5 C0,3.8055794 3.80557939,0 8.5,0 C13.1944206,0 17,3.8055794 17,8.5 C17,10.6675665 16.1886623,12.6456349 14.8531104,14.1470815 L21.1970226,20.4909937 C21.25233,20.546301 21.2570031,20.6420454 21.200832,20.6982165 L19.9900319,21.9090166 C19.9353786,21.9636699 19.841084,21.9634822 19.7828091,21.9052072 L13.3553211,15.4777192 L13.3553211,15.4777192 Z M8.5,16 C12.6421359,16 16,12.6421358 16,8.5 C16,4.35786417 12.6421359,1 8.5,1 C4.35786417,1 1,4.35786417 1,8.5 C1,12.6421358 4.35786417,16 8.5,16 Z" id="a"/></defs><g stroke="none" stroke-width="1" fill="none" fill-rule="evenodd" sketch:type="MSPage"><g><use fill="#7C7B7D" fill-rule="evenodd" sketch:type="MSShapeGroup" xlink:href="#a"/><use fill="none" xlink:href="#a"/></g></g><text x="0" y="37" fill="#000000" font-size="5px" font-weight="bold" font-family="'Helvetica Neue', Helvetica, Arial-Unicode, Arial, Sans-serif">Created by Pham Thi Dieu Linh</text><text x="0" y="42" fill="#000000" font-size="5px" font-weight="bold" font-family="'Helvetica Neue', Helvetica, Arial-Unicode, Arial, Sans-serif">from the Noun Project</text></svg>