<?xml version="1.0" encoding="UTF-8" standalone="no"?>
<!-- Created with Inkscape (http://www.inkscape.org/) by Marsupilami -->
<svg
   xmlns:svg="http://www.w3.org/2000/svg"
   xmlns="http://www.w3.org/2000/svg"
   version="1.0"
   width="757"
   height="768"
   viewBox="0 0 131.30544 133.29994"
   id="svg2646">
  <defs
     id="defs2648" />
  <g
     transform="translate(-310.62705,-461.67857)"
     id="layer1">
    <path
       d="M 75.84375,16.53125 C 44.987338,16.53125 19.9375,41.61235 19.9375,72.46875 C 19.9375,100.15755 40.1231,123.1583 66.5625,127.59375 L 66.5625,125.78125 C 41.094967,121.3812 21.75,99.19519 21.75,72.46875 C 21.749999,42.577807 45.95281,18.3125 75.84375,18.3125 C 105.73469,18.3125 130,42.57781 130,72.46875 C 130,99.085059 110.75529,121.191 85.4375,125.71875 L 85.4375,127.5625 C 111.73079,123.00497 131.78125,100.05372 131.78125,72.46875 C 131.78124,41.612347 106.70015,16.53125 75.84375,16.53125 z M 97.5625,28.28125 C 97.274998,28.31743 97.115,28.40591 96.90625,28.5 C 96.226248,28.84499 95.47125,29.20281 94.75,29.625 C 93.804998,30.190731 92.91375,30.81629 92.0625,31.4375 C 91.209998,32.057521 90.4275,32.72536 89.59375,33.5625 C 89.142498,34.036562 88.655,34.56744 88.03125,34.53125 C 87.709998,34.513162 87.3275,34.31702 87.15625,34.0625 C 86.876248,33.733191 86.94375,33.23721 87,32.78125 C 87.074998,32.160029 87.15625,31.65827 87.25,31.09375 C 87.323748,30.583501 87.4325,30.04149 87.5625,29.53125 L 87.5625,29.5 C 87.562498,29.483119 87.5625,29.46875 87.5625,29.46875 C 87.562498,29.45065 87.5625,29.4375 87.5625,29.4375 C 87.562498,29.419409 87.5625,29.375 87.5625,29.375 C 87.562498,29.35811 87.53125,29.3943 87.53125,29.375 C 87.512498,29.375001 87.51875,29.375 87.5,29.375 C 87.481248,29.375001 87.4875,29.36184 87.46875,29.34375 C 87.449998,29.34375 87.45625,29.34375 87.4375,29.34375 C 87.418748,29.34375 87.39375,29.35691 87.375,29.375 C 87.356248,29.375001 87.3625,29.375 87.34375,29.375 C 87.302498,29.394301 87.26875,29.38695 87.25,29.40625 C 87.043748,29.55221 86.83375,29.72784 86.625,29.875 C 86.001248,30.33096 85.4475,30.84753 85.03125,31.46875 C 84.709998,31.95969 84.4525,32.48734 84.09375,33 C 83.848748,33.34499 83.54125,33.72203 83.125,33.8125 C 82.879998,33.86799 82.61375,33.84903 82.40625,33.71875 C 82.178748,33.593299 82.005,33.33017 81.875,33.09375 C 81.534998,32.454441 81.16125,31.91397 80.6875,31.4375 C 80.119998,30.816291 79.4025,30.31988 78.625,29.9375 C 78.229998,29.716759 77.83375,29.53784 77.4375,29.375 C 77.396248,29.3557 77.36125,29.375 77.34375,29.375 C 77.323748,29.375001 77.33375,29.375 77.3125,29.375 C 77.312498,29.356911 77.3025,29.34375 77.28125,29.34375 C 77.262498,29.34375 77.26875,29.375 77.25,29.375 C 77.232498,29.375001 77.20625,29.35691 77.1875,29.375 C 77.168748,29.39189 77.15625,29.38695 77.15625,29.40625 C 77.137498,29.42435 77.15625,29.41941 77.15625,29.4375 C 77.156248,29.437499 77.15625,29.4807 77.15625,29.5 C 77.156248,29.534979 77.1375,29.55756 77.15625,29.59375 C 77.193748,30.03162 77.2425,30.49963 77.1875,30.9375 C 77.127498,31.6335 76.86875,32.26814 76.71875,32.90625 C 76.544998,33.59864 76.49,34.25925 76.1875,35.03125 C 76.036248,35.358141 75.865,35.71381 75.5625,35.75 C 75.431248,35.783769 75.27125,35.75494 75.125,35.71875 C 74.688748,35.608978 74.33,35.48511 73.96875,35.28125 C 73.366248,34.991751 72.8225,34.53161 72.3125,34.09375 C 71.972498,33.817512 71.63625,33.54191 71.3125,33.25 C 71.292498,33.231911 71.25,33.23685 71.25,33.21875 C 71.249998,33.19945 71.21875,33.1875 71.21875,33.1875 C 71.199998,33.171821 71.1875,33.1875 71.1875,33.1875 C 71.164998,33.187501 71.15625,33.1875 71.15625,33.1875 C 71.137498,33.187501 71.125,33.1875 71.125,33.1875 C 71.103748,33.203181 71.0625,33.1875 71.0625,33.1875 C 71.043748,33.206801 71.05,33.23191 71.03125,33.25 C 71.031248,33.250001 71.03125,33.26315 71.03125,33.28125 C 71.031248,33.281248 71.03125,33.29441 71.03125,33.3125 C 71.012498,33.366781 71,33.41085 71,33.46875 C 70.962498,33.667791 70.95,33.86106 70.96875,34.0625 C 70.968748,34.499161 71.0725,34.96839 71.1875,35.40625 C 71.301248,35.937001 71.4125,36.45609 71.375,36.96875 C 71.317498,37.49468 71.10125,37.98976 70.875,38.5 C 70.439998,38.373339 70.01,38.25693 69.6875,38 C 69.289998,37.70809 69.0275,37.22526 68.875,36.75 C 68.743748,36.34952 68.66625,35.90289 68.625,35.5 C 68.606248,35.465019 68.625,35.44485 68.625,35.40625 C 68.624998,35.386951 68.60875,35.39068 68.59375,35.375 C 68.593748,35.355698 68.5625,35.36064 68.5625,35.34375 C 68.562498,35.343751 68.55,35.3125 68.53125,35.3125 L 68.53125,35.28125 C 68.512498,35.281251 68.46875,35.28125 68.46875,35.28125 C 68.449998,35.281251 68.45375,35.28125 68.4375,35.28125 C 68.437498,35.281251 68.40625,35.29681 68.40625,35.3125 L 68.375,35.3125 C 68.374998,35.312499 68.36125,35.34375 68.34375,35.34375 C 68.287498,35.379941 68.2475,35.36886 68.1875,35.40625 C 67.887498,35.646301 67.75125,36.00951 67.65625,36.375 C 67.543748,36.811662 67.49375,37.26893 67.4375,37.6875 C 67.358748,38.217039 67.2825,38.71804 67.09375,39.25 C 66.959998,39.650469 66.7475,40.03167 66.40625,40.25 C 66.182498,40.393551 65.92,40.5 65.65625,40.5 C 65.199998,40.519302 64.79,40.29399 64.375,40.09375 C 63.713748,39.748761 63.0725,39.39719 62.5625,38.90625 C 62.111252,38.505771 61.70375,38.0234 61.34375,37.53125 C 61.325002,37.509539 61.31875,37.45318 61.28125,37.4375 C 61.281252,37.437498 61.26875,37.42676 61.25,37.40625 L 61.25,37.375 C 61.231252,37.374999 61.21875,37.375 61.21875,37.375 C 61.200002,37.374999 61.1725,37.375 61.15625,37.375 C 61.156252,37.374999 61.1475,37.3557 61.125,37.375 C 61.125002,37.374999 61.09375,37.39057 61.09375,37.40625 C 61.077502,37.406251 61.0625,37.41699 61.0625,37.4375 C 61.062502,37.437498 61.03125,37.45307 61.03125,37.46875 C 61.031252,37.468749 61.03125,37.48191 61.03125,37.5 C 61.031252,37.521722 61.03125,37.57566 61.03125,37.59375 C 60.916252,38.175159 60.83875,38.72505 60.78125,39.3125 C 60.725002,39.965078 60.70625,40.64073 60.78125,41.28125 C 60.838752,42.228149 61.08375,43.06218 61.0625,44.15625 C 61.042502,44.506059 61.00875,44.89593 60.78125,45.09375 C 60.593752,45.275901 60.2275,45.32566 59.90625,45.34375 C 59.470002,45.379938 59.09875,45.42435 58.71875,45.40625 C 58.041252,45.367652 57.335,45.20145 56.65625,45 C 55.806252,44.763581 54.99625,44.48601 54.28125,44.03125 C 53.957502,43.849111 53.675,43.59334 53.375,43.375 C 53.356252,43.356911 53.3125,43.34375 53.3125,43.34375 C 53.295002,43.343749 53.27,43.3125 53.25,43.3125 C 53.231252,43.312502 53.2375,43.3125 53.21875,43.3125 C 53.200002,43.312502 53.20625,43.3125 53.1875,43.3125 C 53.168752,43.312502 53.175,43.32445 53.15625,43.34375 C 53.137502,43.343749 53.14375,43.32324 53.125,43.34375 C 53.125002,43.343749 53.09375,43.35691 53.09375,43.375 L 53.0625,43.40625 C 53.062502,43.406249 53.0625,43.42182 53.0625,43.4375 C 53.062502,43.4568 53.0625,43.49506 53.0625,43.53125 C 53.005002,43.67961 52.95875,43.85404 52.9375,44 C 52.880002,44.382381 52.91125,44.7402 52.96875,45.125 C 53.080002,45.764308 53.315,46.35127 53.65625,46.9375 C 54.036252,47.59129 54.5275,48.23777 54.46875,48.96875 C 54.452502,49.222071 54.35625,49.48485 54.1875,49.6875 C 53.956252,49.99751 53.5425,50.10163 53.125,50.25 C 52.123752,50.576898 51.25875,50.93999 50.3125,51.25 C 48.591252,51.853119 46.68125,52.30189 45.09375,53.25 C 44.547502,53.578098 44.04375,53.96016 43.53125,54.34375 C 43.512502,54.36425 43.51875,54.35932 43.5,54.375 C 43.480002,54.374998 43.46875,54.375 43.46875,54.375 C 43.468752,54.395509 43.4375,54.40625 43.4375,54.40625 C 43.437502,54.42555 43.4375,54.45066 43.4375,54.46875 C 43.437502,54.48805 43.4375,54.5 43.4375,54.5 C 43.437502,54.520501 43.45,54.51557 43.46875,54.53125 C 43.468752,54.54935 43.45125,54.5444 43.46875,54.5625 L 43.5,54.59375 C 43.518752,54.610639 43.53125,54.59376 43.53125,54.59375 C 43.550002,54.593749 43.5625,54.59376 43.5625,54.59375 C 43.578752,54.593749 43.60625,54.59376 43.625,54.59375 C 44.210002,54.593749 44.8425,54.61633 45.40625,54.6875 C 45.992502,54.7635 46.49125,54.90908 47.15625,55.125 C 47.477502,55.219088 47.8175,55.29976 47.875,55.5 C 47.950002,55.70386 47.7925,55.98233 47.625,56.21875 C 47.228752,56.783279 46.78125,57.13812 46.34375,57.5 C 45.627502,58.122421 44.87125,58.84588 44.1875,59.59375 C 43.792502,60.03162 43.42125,60.48154 43.0625,60.9375 C 43.021252,60.972479 42.97875,61.02511 42.9375,61.0625 C 42.921252,61.079392 42.9375,61.07445 42.9375,61.09375 C 42.937502,61.093749 42.90625,61.1069 42.90625,61.125 C 42.906252,61.14068 42.90625,61.16699 42.90625,61.1875 C 42.906252,61.205589 42.9375,61.20065 42.9375,61.21875 C 42.937502,61.21875 42.92125,61.2307 42.9375,61.25 L 42.96875,61.25 C 42.990002,61.26689 43,61.25 43,61.25 C 43.017502,61.25 43.01125,61.28126 43.03125,61.28125 C 43.068752,61.281249 43.0875,61.28126 43.125,61.28125 C 43.200002,61.299349 43.29875,61.3125 43.375,61.3125 C 44.318752,61.38488 45.2675,61.02261 46.15625,60.75 C 47.006252,60.476181 47.7925,60.28698 48.71875,60.03125 C 49.097502,59.920278 49.49125,59.79855 49.8125,60 C 50.002502,60.10856 50.20875,60.3105 50.1875,60.53125 C 50.187502,60.713391 50.06,60.89484 49.90625,61.0625 C 49.133752,61.992522 48.41875,62.70157 47.625,63.46875 C 46.718752,64.343282 45.695,65.28587 44.9375,66.34375 C 44.632502,66.72613 44.3725,67.11268 44.125,67.53125 C 44.106252,67.549347 44.09375,67.57807 44.09375,67.59375 C 44.093752,67.614257 44.09375,67.625 44.09375,67.625 C 44.093752,67.641888 44.09375,67.63815 44.09375,67.65625 C 44.093752,67.675549 44.09375,67.6682 44.09375,67.6875 C 44.093752,67.703177 44.09375,67.71875 44.09375,67.71875 C 44.093752,67.736838 44.09375,67.76316 44.09375,67.78125 C 44.112502,67.781248 44.10625,67.78125 44.125,67.78125 C 44.125002,67.800548 44.15625,67.8125 44.15625,67.8125 C 44.172502,67.831799 44.1875,67.8125 44.1875,67.8125 C 44.206252,67.812499 44.21875,67.8125 44.21875,67.8125 C 44.218752,67.812499 44.23125,67.8125 44.25,67.8125 C 44.288752,67.812499 44.31625,67.8125 44.375,67.8125 C 44.581252,67.777519 44.82125,67.74178 45.03125,67.6875 C 45.882502,67.521037 46.69375,67.22941 47.46875,66.9375 C 48.413752,66.574414 49.275,66.23721 50.3125,65.78125 C 50.993752,65.470039 51.76125,65.10325 52.34375,65.46875 C 52.533752,65.579717 52.6775,65.75295 52.71875,65.9375 C 52.773752,66.154619 52.6325,66.41862 52.5,66.65625 C 52.160002,67.240082 51.89875,67.72408 51.65625,68.25 C 51.276252,69.05336 50.89625,69.94992 50.6875,70.84375 C 50.536252,71.409483 50.46375,71.98109 50.40625,72.5625 C 50.406252,72.599893 50.40625,72.61765 50.40625,72.65625 L 50.40625,72.6875 C 50.406252,72.705602 50.40625,72.71875 50.40625,72.71875 C 50.406252,72.735643 50.4375,72.7307 50.4375,72.75 C 50.458752,72.750004 50.4525,72.78125 50.46875,72.78125 C 50.468752,72.798142 50.5,72.79561 50.5,72.8125 C 50.520002,72.812503 50.53125,72.8125 50.53125,72.8125 C 50.548752,72.812503 50.5625,72.8125 50.5625,72.8125 C 50.581252,72.812503 50.59375,72.8125 50.59375,72.8125 C 50.611252,72.795613 50.625,72.8125 50.625,72.8125 C 50.700002,72.755803 50.78875,72.70932 50.84375,72.65625 C 51.068752,72.490993 51.2725,72.30715 51.5,72.125 C 51.990002,71.724529 52.49125,71.35727 53,70.9375 C 53.625002,70.427263 54.22875,69.87745 54.90625,69.53125 C 55.775002,69.036686 56.7675,68.863 57.75,68.1875 C 58.183752,67.91247 58.58125,67.54155 59,67.6875 C 59.188752,67.741777 59.37375,67.89724 59.46875,68.0625 C 59.638752,68.35079 59.58625,68.67431 59.53125,69 C 59.453752,69.531954 59.45625,70.03669 59.34375,70.53125 C 59.227502,71.060801 59.00875,71.5823 58.78125,72.09375 C 58.741252,72.148031 58.70625,72.22577 58.6875,72.28125 C 58.668752,72.28125 58.6875,72.3125 58.6875,72.3125 C 58.687502,72.330591 58.6875,72.32807 58.6875,72.34375 C 58.687502,72.367872 58.6875,72.375 58.6875,72.375 C 58.706252,72.3931 58.6875,72.40625 58.6875,72.40625 C 58.706252,72.426761 58.7025,72.42181 58.71875,72.4375 C 58.718752,72.437502 58.75,72.44825 58.75,72.46875 C 58.768752,72.468751 58.78125,72.46875 58.78125,72.46875 C 58.802502,72.485641 58.8125,72.46875 58.8125,72.46875 C 58.812502,72.468752 58.82875,72.46875 58.84375,72.46875 C 58.866252,72.451862 58.89,72.46875 58.90625,72.46875 C 59.078752,72.448251 59.265,72.44485 59.4375,72.40625 C 59.986252,72.314571 60.49875,72.05387 60.96875,71.78125 C 61.648752,71.415758 62.27125,70.9802 62.78125,70.46875 C 63.346252,69.940412 63.78,69.37703 64.5,68.8125 C 64.897498,68.502501 65.3725,68.13288 65.75,68.28125 C 65.958748,68.354831 66.11875,68.53419 66.25,68.71875 C 66.536248,69.081833 66.65,69.49142 66.78125,69.875 C 66.949998,70.386448 67.155,70.8948 67.34375,71.40625 C 67.366248,71.442437 67.3875,71.49506 67.40625,71.53125 C 67.406248,71.550548 67.41875,71.5625 67.4375,71.5625 C 67.437498,71.579387 67.4375,71.57445 67.4375,71.59375 C 67.456248,71.593749 67.45,71.57565 67.46875,71.59375 C 67.488748,71.593749 67.51375,71.59375 67.53125,71.59375 C 67.548748,71.593749 67.54375,71.59375 67.5625,71.59375 C 67.583748,71.593749 67.5775,71.59375 67.59375,71.59375 C 67.612498,71.593749 67.60375,71.59375 67.625,71.59375 L 67.65625,71.59375 C 67.656248,71.593748 67.6375,71.57939 67.65625,71.5625 C 67.674998,71.525107 67.74,71.50614 67.78125,71.46875 C 67.893748,71.305899 68.02375,71.12918 68.15625,70.96875 C 68.611248,70.457297 69.0725,69.91068 69.375,69.34375 C 69.828748,68.577778 69.94125,67.77915 70.28125,66.6875 C 70.451248,66.046983 70.72,65.32446 71.25,65.34375 C 71.457498,65.343753 71.71375,65.43332 71.84375,65.59375 C 72.051248,65.815697 72.03125,66.15633 72.03125,66.46875 C 72.014998,67.08635 72.0475,67.65422 72.03125,68.21875 C 72.008748,68.768801 71.91875,69.32736 71.84375,69.875 C 71.826248,70.002859 71.8,70.14023 71.78125,70.25 C 71.781248,70.268092 71.78125,70.26316 71.78125,70.28125 C 71.781248,70.30176 71.79375,70.29561 71.8125,70.3125 C 71.812498,70.328181 71.82375,70.35329 71.84375,70.375 L 71.9375,70.5 C 71.937498,70.500003 71.95,70.53125 71.96875,70.53125 C 71.968748,70.549351 71.96875,70.5625 71.96875,70.5625 C 71.987498,70.581802 72.03125,70.5625 72.03125,70.5625 C 72.047498,70.562502 72.0625,70.5625 72.0625,70.5625 C 72.081248,70.562502 72.09375,70.5625 72.09375,70.5625 C 72.111248,70.562502 72.125,70.5625 72.125,70.5625 C 72.199998,70.510632 72.26875,70.44243 72.34375,70.40625 C 72.756248,70.131222 73.18125,69.84126 73.5625,69.53125 C 74.239998,68.983616 74.8025,68.3198 75.3125,67.625 C 75.822498,66.913308 76.29875,66.21409 76.8125,65.5 C 77.171248,65.027148 77.52625,64.56702 78.09375,64.3125 C 78.526248,64.11226 79.12125,64.00656 79.5,64.1875 C 79.858748,64.352751 80.0725,64.75456 80.28125,65.15625 C 80.337498,65.811237 80.38875,66.48075 80.40625,67.15625 C 80.443748,68.613404 80.28375,70.07168 80,71.53125 C 79.528748,74.158458 78.60125,76.675 77.5625,79.15625 C 76.391248,82.002996 75.0475,84.75522 74.125,87.65625 C 73.216248,90.35343 72.695,93.1425 72.46875,95.96875 C 72.297498,97.994042 72.27375,100.05278 72.40625,102.09375 C 72.557498,104.68478 72.91375,107.27202 73.3125,109.84375 C 73.442498,110.664 73.57,111.47416 73.53125,112.3125 C 73.531248,112.60562 73.50125,112.86928 73.3125,113.125 C 73.158748,113.32283 72.9175,113.53498 72.6875,113.5 C 72.498748,113.48311 72.3325,113.31789 72.21875,113.15625 C 72.087498,112.95239 72.01625,112.76515 71.9375,112.5625 C 71.749998,111.99798 71.60625,111.38438 71.4375,110.78125 C 70.943748,109.01289 70.35125,107.29796 69.59375,105.65625 C 68.382498,102.91806 66.7775,100.32007 65,97.875 C 63.188748,95.322581 61.1775,92.90689 58.875,90.71875 C 56.585002,88.493217 53.9925,86.4953 51.0625,85.125 C 49.721252,84.504987 48.295,84.03655 46.875,83.5625 L 46.84375,84.03125 C 46.956252,84.051751 47.05125,84.06951 47.125,84.125 C 47.278752,84.215472 47.30875,84.46675 47.34375,84.6875 C 47.362502,84.975787 47.45625,85.20601 47.625,85.40625 C 47.815002,85.66197 48.09125,85.92717 48.375,86.125 C 49.376252,86.872881 50.26,87.67602 51.09375,88.53125 C 53.435002,90.850873 55.5475,93.46039 57.53125,96.125 C 59.630002,98.916262 61.5875,101.74742 63.15625,104.8125 C 64.897502,108.07903 66.1675,111.57391 67.28125,115.09375 C 68.491248,118.9055 69.49875,122.81653 70.15625,126.71875 C 70.554998,129.10713 70.86125,131.48542 71.125,133.875 L 79.90625,134.21875 C 79.947498,133.4733 79.9625,132.70347 80,131.9375 C 80.018748,131.44535 80.05625,130.94895 80.09375,130.4375 C 80.226248,128.34225 80.48125,126.23583 80.84375,124.15625 C 81.296248,121.58332 81.91125,119.04749 82.6875,116.53125 C 83.421248,114.14046 84.285,111.78924 85.34375,109.5625 C 86.176248,107.74106 87.145,106.01957 88.28125,104.25 C 88.901248,103.2464 89.58625,102.24829 90.625,101.71875 C 90.983748,101.51851 91.38625,101.36919 91.78125,101.3125 C 92.308748,101.24133 92.84375,101.32324 93.375,101.34375 C 93.961248,101.36185 94.50375,101.27917 95.09375,101.1875 C 96.774998,100.96676 98.45375,100.40985 99.8125,99.40625 C 101.11625,98.511209 102.17,97.2634 102.8125,95.875 C 103.43625,94.583101 103.7,93.16022 103.8125,91.71875 C 103.9475,90.405149 103.9325,89.06941 104.25,87.8125 C 104.59375,86.18768 105.46375,84.68084 106.21875,83.1875 C 106.74875,82.147707 107.24375,81.10229 107.71875,80.0625 C 107.73375,80.04441 107.71875,80.04935 107.71875,80.03125 C 107.74125,80.031249 107.75,79.98805 107.75,79.96875 C 107.75,79.96875 107.74125,79.95559 107.71875,79.9375 C 107.71875,79.937501 107.71875,79.92435 107.71875,79.90625 C 107.70375,79.90625 107.71,79.875 107.6875,79.875 C 107.6875,79.855699 107.65625,79.86063 107.65625,79.84375 C 107.63375,79.84375 107.64,79.84375 107.625,79.84375 C 107.60375,79.82445 107.61375,79.8125 107.59375,79.8125 C 107.575,79.812499 107.5625,79.8125 107.5625,79.8125 C 107.5425,79.831799 107.54875,79.84375 107.53125,79.84375 C 107.5125,79.86063 107.4875,79.875 107.46875,79.875 C 107.45,79.893099 107.45625,79.9194 107.4375,79.9375 C 107.28375,80.081041 107.10875,80.2171 106.9375,80.34375 C 106.2375,80.946881 105.47,81.41903 104.65625,81.875 C 103.8225,82.312871 103.015,82.75622 102.125,83.03125 C 100.78125,83.504097 99.3125,83.57773 97.875,83.6875 C 95.662498,83.83225 93.4775,84.08031 91.4375,84.8125 C 89.488748,85.448194 87.6275,86.50425 86.25,88 C 85.286248,89.00119 84.545,90.22006 84.1875,91.53125 C 83.733748,92.97513 83.745,94.56795 84.03125,96.0625 C 84.122498,96.683723 84.2975,97.2756 84.5625,97.84375 C 84.769998,98.337102 85.02875,98.79404 85.3125,99.25 C 85.333748,99.269299 85.35625,99.27631 85.375,99.3125 C 85.374998,99.312499 85.35625,99.34375 85.375,99.34375 L 85.40625,99.34375 C 85.422498,99.36305 85.4175,99.37499 85.4375,99.375 C 85.458748,99.375001 85.4525,99.37499 85.46875,99.375 C 85.486248,99.394301 85.48,99.37499 85.5,99.375 C 85.521248,99.375001 85.54625,99.37499 85.5625,99.375 C 85.582498,99.375001 85.57375,99.34375 85.59375,99.34375 C 85.593748,99.32566 85.59375,99.32939 85.59375,99.3125 C 85.609998,99.312499 85.625,99.29813 85.625,99.28125 C 85.668748,99.20887 85.6775,99.13608 85.71875,99.0625 C 85.793748,98.788679 85.89375,98.51187 85.96875,98.21875 C 86.196248,97.437102 86.34,96.61093 86.625,95.84375 C 86.986248,94.76657 87.58,93.79767 88.375,92.90625 C 89.244998,91.879727 90.355,90.99215 91.46875,90.5 C 92.472498,90.044044 93.48,89.90168 94.84375,89.5 C 95.392498,89.335949 95.99375,89.12508 96.28125,89.4375 C 96.431248,89.601549 96.4975,89.93177 96.4375,90.1875 C 96.362498,90.479413 96.08625,90.66041 95.84375,90.84375 C 95.276248,91.298514 94.805,91.76279 94.3125,92.21875 C 92.762498,93.714511 91.36,95.47342 90,97.1875 C 88.012498,99.669959 86.06625,102.07345 84.3125,104.71875 C 82.929998,106.74405 81.68875,108.90354 80.6875,111 C 80.026248,112.34979 79.48,113.67124 78.6875,115.1875 C 78.423748,115.71463 78.11625,116.25788 77.625,116.40625 C 77.417498,116.47742 77.185,116.4375 76.9375,116.4375 C 76.956248,115.32293 76.96375,114.22149 76.90625,113.125 C 76.812498,111.53878 76.54875,109.97679 76.25,108.40625 C 75.852498,106.32667 75.40125,104.23583 75.15625,102.15625 C 74.891248,100.14784 74.82,98.14535 75.03125,96.15625 C 75.238748,93.877643 75.7975,91.64 76.5,89.46875 C 77.161248,87.42415 77.9425,85.45172 78.8125,83.5 C 79.644998,81.567588 80.595,79.64042 81.3125,77.6875 C 82.087498,75.663408 82.66,73.58485 82.90625,71.375 C 83.171248,69.457058 83.175,67.45586 83.0625,65.6875 C 83.004998,64.517438 82.855,63.49081 82.875,62.03125 C 82.874998,61.70194 82.91625,61.34661 83.125,61.21875 C 83.274998,61.11018 83.52625,61.13322 83.75,61.1875 C 83.977498,61.241779 84.195,61.31084 84.34375,61.4375 C 84.667498,61.692021 84.8075,62.12135 85.03125,62.46875 C 85.222498,62.741361 85.4275,62.97158 85.65625,63.1875 C 85.671248,63.2068 85.735,63.23191 85.75,63.25 C 85.749998,63.249999 85.75,63.26074 85.75,63.28125 C 85.768748,63.28125 85.8125,63.28125 85.8125,63.28125 C 85.827498,63.28125 85.84375,63.28125 85.84375,63.28125 C 85.862498,63.28125 85.875,63.28125 85.875,63.28125 C 85.893748,63.28125 85.90625,63.28125 85.90625,63.28125 C 85.924998,63.26074 85.91875,63.2681 85.9375,63.25 L 85.96875,63.21875 C 86.121248,63.054701 86.27875,62.88774 86.375,62.6875 C 86.566248,62.267731 86.45375,61.74335 86.46875,61.25 C 86.453748,60.72166 86.595,60.22164 86.78125,59.75 C 86.933748,59.329009 87.11,58.95102 87.375,58.53125 C 87.543748,58.275521 87.735,57.97369 88,57.9375 C 88.191248,57.902518 88.395,57.95032 88.5625,58.0625 C 88.943748,58.280841 89.1575,58.71137 89.25,59.09375 C 89.324998,59.441149 89.33125,59.7969 89.40625,60.125 C 89.481248,60.708829 89.66625,61.26366 89.875,61.8125 C 89.893748,61.848692 89.91875,61.90131 89.9375,61.9375 C 89.937498,61.955589 89.9375,61.96875 89.9375,61.96875 C 89.937498,61.986852 89.96875,61.9807 89.96875,62 C 89.987498,61.999999 89.98125,62 90,62 L 90,62.03125 C 90.022498,62.03125 90.04375,62.03125 90.0625,62.03125 L 90.09375,62.03125 C 90.108748,62.03125 90.125,62.0193 90.125,62 C 90.143748,61.999999 90.15625,62.01689 90.15625,62 C 90.169998,61.999999 90.1875,61.96875 90.1875,61.96875 C 90.209998,61.968752 90.21875,61.96875 90.21875,61.96875 C 90.237498,61.932572 90.235,61.91119 90.25,61.875 C 90.366248,61.709751 90.47,61.49465 90.5625,61.3125 C 90.753748,60.94701 90.88125,60.57109 90.9375,60.1875 C 91.068748,59.546979 91.04125,58.92056 91,58.28125 C 90.962498,57.4429 90.875,56.5891 91.3125,55.875 C 91.462498,55.622888 91.6725,55.3635 91.9375,55.21875 C 92.448748,54.871349 93.17875,54.90131 93.84375,54.9375 C 94.617498,54.954391 95.35375,54.9749 96.09375,54.9375 C 96.754998,54.919411 97.4325,54.85363 98.09375,54.78125 C 98.168748,54.781251 98.2375,54.7693 98.3125,54.75 L 98.34375,54.75 C 98.343748,54.749998 98.35625,54.75 98.375,54.75 C 98.393748,54.731898 98.41875,54.70801 98.4375,54.6875 C 98.437498,54.6875 98.4375,54.67313 98.4375,54.65625 C 98.437498,54.656251 98.4375,54.64189 98.4375,54.625 C 98.437498,54.625 98.4375,54.61064 98.4375,54.59375 C 98.437498,54.593749 98.4375,54.58059 98.4375,54.5625 L 98.4375,54.53125 C 98.381248,54.47456 98.33375,54.4317 98.28125,54.375 C 98.128748,54.191648 97.94,53.9897 97.75,53.84375 C 97.526248,53.660402 97.2775,53.50659 97.03125,53.34375 C 96.523748,53.033749 96.04625,52.70434 95.78125,52.03125 C 95.613748,51.645251 95.50375,51.10275 95.75,50.9375 C 95.899998,50.809628 96.20375,50.84375 96.46875,50.84375 C 97.204998,50.865461 97.7825,50.79233 98.40625,50.71875 C 99.313748,50.628281 100.32375,50.57897 101.25,50.34375 C 101.8175,50.215889 102.35625,50.01515 102.90625,49.8125 C 102.95875,49.793201 103.00375,49.73805 103.0625,49.71875 L 103.09375,49.71875 C 103.11375,49.718751 103.1075,49.6875 103.125,49.6875 C 103.125,49.66941 103.15625,49.67555 103.15625,49.65625 C 103.15625,49.639361 103.15625,49.6431 103.15625,49.625 C 103.175,49.60691 103.15625,49.61305 103.15625,49.59375 C 103.15625,49.576869 103.15625,49.55055 103.15625,49.53125 C 103.15625,49.513159 103.14375,49.51809 103.125,49.5 C 103.105,49.479491 103.08125,49.45319 103.0625,49.4375 C 102.76,49.197459 102.4775,48.99004 102.15625,48.75 C 101.8725,48.511161 101.5525,48.2964 101.25,48.09375 C 100.57,47.673981 99.88,47.41234 99.3125,46.71875 C 99.047498,46.40754 98.81375,46.00704 98.90625,45.71875 C 98.981248,45.442521 99.3875,45.22655 99.75,45.0625 C 100.72875,44.606529 101.48875,44.32976 102.28125,43.875 C 102.90875,43.526399 103.56125,43.06453 104.03125,42.5 C 104.37125,42.116418 104.61625,41.71911 104.84375,41.28125 C 104.8625,41.245059 104.90125,41.18049 104.9375,41.125 C 104.9375,41.125 104.9375,41.11305 104.9375,41.09375 C 104.9575,41.093752 104.9375,41.05055 104.9375,41.03125 C 104.9375,41.031252 104.9375,41.01809 104.9375,41 C 104.92,41.000001 104.90625,41 104.90625,41 C 104.8875,40.980701 104.89375,40.95559 104.875,40.9375 C 104.875,40.937501 104.8625,40.95559 104.84375,40.9375 C 104.84375,40.937501 104.80375,40.9375 104.78125,40.9375 C 104.78125,40.937501 104.7725,40.9375 104.75,40.9375 C 104.35375,40.919401 104.0325,40.90953 103.5625,41 C 103.0475,41.072371 102.3725,41.28938 102.21875,41.03125 C 102.07,40.831012 102.26375,40.33424 102.46875,39.96875 C 102.6775,39.588781 102.89125,39.32283 103.15625,39.125 C 103.705,38.646121 104.545,38.43908 105.1875,38 C 105.67625,37.70809 106.09125,37.29719 106.46875,36.875 C 106.50625,36.82313 106.52625,36.77544 106.5625,36.71875 C 106.5825,36.718749 106.59375,36.71875 106.59375,36.71875 C 106.61125,36.700659 106.625,36.67796 106.625,36.65625 C 106.625,36.63815 106.625,36.6431 106.625,36.625 C 106.625,36.605699 106.625,36.61063 106.625,36.59375 C 106.625,36.57806 106.59375,36.58421 106.59375,36.5625 C 106.59375,36.546819 106.5625,36.51809 106.5625,36.5 C 106.54375,36.499999 106.54875,36.51809 106.53125,36.5 C 106.5125,36.499999 106.51875,36.48926 106.5,36.46875 C 106.4625,36.468748 106.44375,36.48443 106.40625,36.46875 C 105.9725,36.377078 105.54625,36.29693 105.09375,36.28125 C 104.24625,36.207671 103.33875,36.32279 102.5625,36.46875 C 101.92,36.578518 101.34875,36.7229 100.59375,36.90625 C 100.0075,37.049791 99.32125,37.23435 99,36.90625 C 98.776248,36.707221 98.73125,36.31254 98.75,35.96875 C 98.768748,35.457299 98.99,35.02427 99.21875,34.625 C 99.669998,33.820429 100.1725,33.03648 100.625,32.25 C 100.83375,31.9219 101.02,31.59981 101.1875,31.25 C 101.24375,31.16194 101.28375,31.08926 101.34375,31 C 101.35875,30.98191 101.34375,30.95559 101.34375,30.9375 C 101.34375,30.9182 101.34375,30.92676 101.34375,30.90625 C 101.34375,30.890569 101.34375,30.89309 101.34375,30.875 C 101.34375,30.856901 101.3125,30.86305 101.3125,30.84375 C 101.3125,30.84375 101.3,30.8125 101.28125,30.8125 L 101.25,30.78125 C 101.23125,30.78125 101.21875,30.78125 101.21875,30.78125 C 101.2,30.76195 101.1875,30.76195 101.1875,30.78125 C 101.16875,30.78125 101.15625,30.78125 101.15625,30.78125 C 101.13625,30.78125 101.125,30.78125 101.125,30.78125 C 101.125,30.79934 101.125,30.8125 101.125,30.8125 C 101.03125,30.86678 100.90625,30.91085 100.8125,30.96875 C 100.395,31.189501 100.00875,31.39351 99.59375,31.59375 C 98.969998,31.88566 98.3175,32.11226 97.65625,32.3125 C 96.991248,32.511528 96.3175,32.6616 95.65625,32.84375 C 95.674998,32.699 95.7,32.5498 95.71875,32.40625 C 95.759998,32.057651 95.825,31.7019 95.9375,31.375 C 96.104998,30.827359 96.41,30.31988 96.75,29.9375 C 97.011248,29.608189 97.2875,29.39347 97.6875,28.9375 C 97.874998,28.71797 98.1,28.43301 97.96875,28.34375 C 97.908748,28.271369 97.7125,28.28125 97.5625,28.28125 z M 93,32.6875 C 93.043298,32.682389 93.08688,32.66941 93.125,32.6875 C 93.237498,32.724889 93.31875,32.84089 93.375,32.96875 C 93.504998,33.276349 93.48,33.58309 93.40625,33.875 C 93.289998,34.439529 93.01,34.9812 92.78125,35.53125 C 92.553748,36.03908 92.41,36.59425 92.21875,37.125 C 92.409998,37.106911 92.58125,37.13235 92.75,37.09375 C 93.219998,37.022582 93.655,36.68829 94.03125,36.46875 C 94.712498,36.046558 95.28375,35.85641 96.1875,35.34375 C 96.568748,35.124211 96.98375,34.83222 97.15625,35.03125 C 97.267498,35.124131 97.2675,35.45228 97.25,35.6875 C 97.212498,35.96373 97.14125,36.15426 97.0625,36.375 C 96.857498,36.938322 96.5275,37.52429 96.28125,38.125 C 96.018748,38.74381 95.82125,39.34753 95.59375,39.96875 C 95.896248,40.023031 96.18125,40.08059 96.46875,40.0625 C 97.013748,40.080588 97.57375,39.86471 98.0625,39.71875 C 98.611248,39.552289 99.05875,39.4453 99.8125,39.28125 C 100.2875,39.175101 100.83125,39.04034 100.90625,39.1875 C 101.06,39.31416 100.53375,39.85446 100.15625,40.21875 C 99.853748,40.493769 99.6525,40.67477 99.40625,40.875 C 98.823748,41.367149 98.045,41.97497 97.15625,42.25 C 96.607498,42.434549 96.01,42.49469 95.6875,42.96875 C 95.594998,43.094202 95.525,43.24955 95.5625,43.375 C 95.581248,43.557151 95.81,43.72324 96,43.8125 C 96.303748,43.95846 96.56,43.99507 96.84375,44.03125 C 96.922498,44.052961 96.98375,44.0625 97.0625,44.0625 C 97.062498,44.062502 97.0625,44.07566 97.0625,44.09375 C 97.081248,44.09375 97.09375,44.09375 97.09375,44.09375 C 97.112498,44.09375 97.1375,44.125 97.15625,44.125 C 97.156248,44.143091 97.15625,44.13574 97.15625,44.15625 C 97.156248,44.171929 97.15625,44.167 97.15625,44.1875 C 97.156248,44.206801 97.175,44.20307 97.15625,44.21875 C 97.156248,44.235638 97.15625,44.2307 97.15625,44.25 C 97.156248,44.268089 97.15625,44.2944 97.15625,44.3125 L 97.125,44.3125 C 97.124998,44.312499 97.1125,44.32325 97.09375,44.34375 C 97.014998,44.396831 96.9625,44.46381 96.90625,44.5 C 96.603748,44.68335 96.28375,44.81337 95.90625,44.90625 C 95.453748,45.0317 94.87375,45.08275 94.6875,45.46875 C 94.631248,45.5942 94.61875,45.73025 94.65625,45.875 C 94.711248,46.07524 94.8875,46.24835 95.0625,46.375 C 95.663748,46.849062 96.315,47.08757 96.9375,47.46875 C 97.333748,47.70517 97.70375,48.02058 98.0625,48.3125 C 98.118748,48.34868 98.15,48.37127 98.1875,48.40625 C 98.204998,48.423139 98.2275,48.41699 98.25,48.4375 C 98.249998,48.4375 98.23375,48.46875 98.25,48.46875 C 98.249998,48.489259 98.25,48.5 98.25,48.5 C 98.249998,48.51689 98.25,48.53125 98.25,48.53125 C 98.249998,48.551751 98.26625,48.5625 98.25,48.5625 C 98.249998,48.580599 98.24125,48.59375 98.21875,48.59375 C 98.218748,48.61305 98.1875,48.63936 98.1875,48.65625 C 98.149998,48.67555 98.13125,48.68498 98.09375,48.71875 C 97.939998,48.81284 97.80625,48.91206 97.65625,48.96875 C 97.406248,49.079731 97.17125,49.15252 96.90625,49.1875 C 96.472498,49.261079 96.03,49.22489 95.59375,49.1875 C 95.024998,49.152519 94.4575,49.14716 93.875,49 C 93.512498,48.909532 93.1025,48.74956 92.78125,48.875 C 92.647498,48.9317 92.54375,49.00569 92.46875,49.09375 C 92.237498,49.365148 92.28875,49.76565 92.4375,50.09375 C 92.568748,50.424262 92.78375,50.67224 93.03125,50.90625 C 93.369998,51.235561 93.715,51.57529 93.90625,52.03125 C 94.017498,52.268881 94.0875,52.54362 94.03125,52.78125 C 93.994998,52.963391 93.87875,53.13529 93.78125,53.28125 C 93.762498,53.281249 93.78125,53.3125 93.78125,53.3125 C 93.766248,53.32938 93.75,53.32445 93.75,53.34375 C 93.723748,53.343749 93.71875,53.3569 93.71875,53.375 C 93.701248,53.375 93.70625,53.3569 93.6875,53.375 C 93.664998,53.375 93.67125,53.375 93.65625,53.375 C 93.633748,53.375 93.6125,53.39309 93.59375,53.375 C 93.424998,53.32072 93.235,53.25493 93.0625,53.21875 C 92.551248,53.07158 92.04375,52.9692 91.53125,52.84375 C 91.154998,52.749661 90.815,52.65625 90.4375,52.65625 C 90.172498,52.656251 89.89625,52.66896 89.6875,52.8125 C 89.574998,52.88488 89.46625,52.98398 89.40625,53.09375 C 89.312498,53.296402 89.4,53.54241 89.4375,53.78125 C 89.516248,54.070748 89.50625,54.33429 89.46875,54.625 C 89.427498,54.95431 89.38,55.33342 89.15625,55.53125 C 88.964998,55.714601 88.64,55.7944 88.375,55.8125 C 87.959998,55.848679 87.615,55.83312 87.21875,55.78125 C 86.632498,55.706462 86.01375,55.5991 85.46875,55.78125 C 85.181248,55.871722 84.935,56.02103 84.6875,56.1875 C 84.723748,56.4975 84.76875,56.78989 84.84375,57.0625 C 84.901248,57.336319 84.98625,57.59131 85.0625,57.9375 C 85.138748,58.249918 85.2075,58.62587 85,58.71875 C 84.887498,58.793541 84.68625,58.75735 84.5,58.71875 C 84.118748,58.611401 83.82,58.48477 83.5,58.375 C 83.067498,58.226631 82.565,58.12654 82.09375,58.03125 C 82.014998,58.031249 81.92,58.0181 81.84375,58 C 81.843748,58.000002 81.835,58 81.8125,58 C 81.797498,58.000002 81.8,58 81.78125,58 C 81.761248,58.000002 81.77,58.03125 81.75,58.03125 C 81.728748,58.054169 81.705,58.04562 81.6875,58.0625 C 81.687498,58.062501 81.70625,58.09375 81.6875,58.09375 C 81.687498,58.111839 81.6875,58.125 81.6875,58.125 C 81.649998,58.27095 81.6,58.41414 81.5625,58.5625 C 81.338748,59.311589 81.1175,60.06704 80.90625,60.8125 C 80.699998,61.526611 80.5025,62.25706 80.3125,62.96875 C 80.181248,62.910849 80.06875,62.83312 79.9375,62.78125 C 79.558748,62.579811 79.165,62.37786 78.75,62.25 C 78.409998,62.141431 78.04625,62.09628 77.6875,62.0625 C 77.364998,62.025109 77.03625,62 76.71875,62 C 76.658748,61.999999 76.63125,62 76.59375,62 C 76.576248,61.999999 76.5625,62 76.5625,62 C 76.546248,61.999999 76.53125,61.98311 76.53125,62 C 76.512498,61.999999 76.49,62.01195 76.46875,62.03125 L 76.46875,62.0625 C 76.468748,62.080599 76.4375,62.09375 76.4375,62.09375 C 76.417498,62.19025 76.3925,62.24133 76.375,62.3125 C 76.259998,62.732271 76.14,63.16696 75.96875,63.53125 C 75.742498,64.041491 75.48875,64.37385 75.09375,65.03125 C 74.637498,65.741733 74.01,66.90749 73.6875,66.5625 C 73.557498,66.453941 73.475,66.11757 73.4375,65.84375 C 73.363748,65.445688 73.39375,65.11428 73.375,64.75 C 73.374998,64.439993 73.35,64.07931 73.40625,63.75 C 73.443748,63.331431 73.5875,62.94982 73.53125,62.53125 C 73.512498,62.21883 73.34875,61.9009 73.0625,61.71875 C 72.929998,61.623461 72.7625,61.60932 72.59375,61.625 C 72.328748,61.64069 72.1475,61.83716 71.9375,62 C 71.618748,62.255719 71.31625,62.49427 71.03125,62.75 C 70.691248,63.096189 70.3775,63.52146 70.09375,63.90625 C 69.678748,64.508169 69.245,64.96835 68.90625,65.75 C 68.753748,66.115498 68.6425,66.54067 68.34375,66.59375 C 68.153748,66.632352 67.905,66.52555 67.65625,66.4375 C 67.508748,66.363912 67.36125,66.34168 67.25,66.25 C 66.986248,66.04735 66.93125,65.61923 66.96875,65.21875 C 67.006248,64.837566 67.13625,64.46252 66.90625,64.1875 C 66.794998,64.078931 66.61875,63.9819 66.46875,64 C 66.259998,63.999999 66.1025,64.19165 65.96875,64.375 C 65.723748,64.66933 65.545,64.94493 65.375,65.21875 C 65.131248,65.638516 64.89,66.07771 64.625,66.53125 C 64.226248,67.22726 63.71625,67.90753 63,68.21875 C 62.562502,68.420191 62.06,68.47938 61.53125,68.53125 C 61.550002,68.317742 61.53125,68.09213 61.53125,67.875 C 61.531252,67.597559 61.53125,67.33511 61.53125,67.0625 C 61.550002,66.532963 61.60625,66.01024 61.53125,65.5 C 61.512502,65.262358 61.46125,64.98642 61.40625,64.75 C 61.406252,64.750003 61.40625,64.73684 61.40625,64.71875 C 61.406252,64.701862 61.375,64.6875 61.375,64.6875 C 61.356252,64.687502 61.3625,64.6875 61.34375,64.6875 C 61.325002,64.687502 61.33125,64.65625 61.3125,64.65625 C 61.293752,64.656251 61.26875,64.65625 61.25,64.65625 C 61.231252,64.656251 61.2375,64.65625 61.21875,64.65625 C 61.218752,64.674341 61.21875,64.6875 61.21875,64.6875 C 61.181252,64.687502 61.16625,64.69825 61.125,64.71875 C 60.747502,64.846621 60.37125,64.9934 60.03125,65.15625 C 59.482502,65.392667 58.98375,65.63485 58.4375,65.90625 C 57.850002,66.183688 57.19375,66.44493 56.625,66.71875 C 56.097502,66.956381 55.62625,67.20307 54.90625,67.21875 C 54.681252,67.239263 54.45125,67.23477 54.375,67.125 C 54.243752,66.979053 54.36625,66.66318 54.5,66.40625 C 54.725002,65.9515 54.86625,65.64433 55,65.28125 C 55.095002,65.025534 55.20625,64.71373 55.28125,64.4375 C 55.373752,64.167302 55.465,63.90123 55.5625,63.625 C 55.578752,63.552618 55.60625,63.47742 55.625,63.40625 C 55.625002,63.38575 55.625,63.375 55.625,63.375 C 55.625002,63.375001 55.6375,63.375 55.65625,63.375 C 55.656252,63.356901 55.65625,63.34375 55.65625,63.34375 C 55.656252,63.32204 55.64375,63.31251 55.625,63.3125 C 55.625002,63.296819 55.64375,63.28125 55.625,63.28125 C 55.625002,63.26074 55.6125,63.2681 55.59375,63.25 C 55.593752,63.249999 55.57875,63.21874 55.5625,63.21875 C 55.562502,63.218751 55.55,63.1875 55.53125,63.1875 C 55.531252,63.1875 55.48625,63.1875 55.46875,63.1875 C 55.468752,63.1875 55.45625,63.1875 55.4375,63.1875 L 55.4375,63.21875 C 55.402502,63.218751 55.37875,63.25 55.34375,63.25 C 55.156252,63.319959 54.93625,63.36765 54.75,63.40625 C 53.972502,63.60408 53.15625,63.5625 52.34375,63.5625 C 51.666252,63.5625 50.965,63.58881 50.28125,63.625 C 50.281252,63.388568 50.285,63.15342 50.34375,62.9375 C 50.442502,62.093132 51.16875,61.70007 52.0625,60.875 C 52.852502,60.185019 53.79375,59.11055 53.28125,58.78125 C 53.092502,58.618399 52.58875,58.61184 52.15625,58.59375 C 51.682502,58.57566 51.28375,58.56744 50.90625,58.53125 C 50.376252,58.475761 49.88125,58.40177 49.125,58.3125 C 48.785002,58.276319 48.4,58.19892 48.34375,58.03125 C 48.267502,57.870819 48.59,57.57897 48.875,57.34375 C 49.386252,56.923979 49.74125,56.71592 50.15625,56.5 C 50.970002,56.08022 51.9925,55.57067 52.84375,54.96875 C 53.356252,54.618938 53.79625,54.22492 54.25,53.84375 C 54.268752,53.823242 54.29125,53.79934 54.3125,53.78125 C 54.331252,53.765558 54.325,53.77171 54.34375,53.75 L 54.34375,53.71875 C 54.362502,53.70066 54.375,53.6875 54.375,53.6875 C 54.375002,53.668202 54.375,53.65625 54.375,53.65625 C 54.375002,53.636951 54.34375,53.625 54.34375,53.625 C 54.343752,53.60691 54.33125,53.59375 54.3125,53.59375 C 54.312502,53.573241 54.3125,53.54934 54.3125,53.53125 C 54.291252,53.531251 54.28125,53.53125 54.28125,53.53125 C 54.262502,53.513151 54.21875,53.53124 54.21875,53.53125 C 54.140002,53.531251 54.085,53.53124 54.03125,53.53125 C 53.767502,53.513151 53.515,53.5 53.25,53.5 C 52.740002,53.51809 52.2775,53.65089 51.65625,53.46875 C 51.353752,53.377071 51.03125,53.1953 51.03125,53.03125 C 50.993752,52.851518 51.3325,52.66284 51.65625,52.5 C 52.296252,52.170691 52.73,51.98269 53.21875,51.78125 C 53.973752,51.471242 54.86875,51.10935 55.71875,50.78125 C 56.287502,50.578601 56.815,50.3577 57.34375,50.15625 C 57.417502,50.138161 57.48875,50.14068 57.5625,50.125 L 57.5625,50.09375 C 57.583752,50.093752 57.5725,50.07939 57.59375,50.0625 L 57.625,50.0625 C 57.646252,50.044398 57.65625,50 57.65625,50 C 57.656252,49.980699 57.65625,49.96875 57.65625,49.96875 C 57.635002,49.953071 57.625,49.9375 57.625,49.9375 C 57.625002,49.9182 57.625,49.92434 57.625,49.90625 C 57.566252,49.850762 57.50625,49.80307 57.46875,49.75 C 57.315002,49.604042 57.195,49.44651 57.0625,49.28125 C 56.836252,48.992958 56.64375,48.65003 56.4375,48.375 C 56.136252,47.974528 55.83,47.68217 55.53125,47.15625 C 55.395002,46.934299 55.25375,46.6953 55.3125,46.53125 C 55.312502,46.16575 56.17625,46.31216 56.78125,46.40625 C 57.405002,46.478629 57.7975,46.51074 58.25,46.53125 C 58.798752,46.56381 59.43875,46.57565 60.0625,46.59375 C 60.667502,46.62994 61.27625,46.66899 61.84375,46.46875 C 62.108752,46.375868 62.35125,46.23028 62.5,46.03125 C 62.691252,45.831009 62.78125,45.55145 62.78125,45.28125 C 62.800002,45.025519 62.7425,44.80134 62.6875,44.5625 C 62.608752,44.23681 62.5325,43.87371 62.4375,43.5625 C 62.306252,43.070349 62.1425,42.62702 62.21875,42.0625 C 62.256252,41.678911 62.42625,41.26602 62.75,41.15625 C 62.957502,41.082671 63.2225,41.15591 63.46875,41.25 C 64.037502,41.432142 64.49875,41.68298 64.96875,41.9375 C 65.347498,42.12085 65.7375,42.25789 66.15625,42.40625 C 66.398748,42.495522 66.67375,42.58881 66.9375,42.625 C 67.238748,42.64309 67.565,42.60155 67.8125,42.4375 C 68.019998,42.309639 68.15375,42.09333 68.25,41.875 C 68.361248,41.56499 68.38,41.26232 68.34375,40.84375 C 68.306248,40.132061 68.19375,38.91447 68.6875,38.96875 C 68.857498,38.968751 69.0925,39.16281 69.28125,39.34375 C 69.583748,39.618769 69.7475,39.94165 70.03125,40.125 C 70.202498,40.234772 70.39875,40.30877 70.625,40.34375 C 70.983748,40.437842 71.385,40.47161 71.6875,40.34375 C 72.046248,40.215892 72.32875,39.83677 72.5,39.4375 C 72.688748,39.017731 72.72375,38.56988 72.78125,38.1875 C 72.818748,37.856978 72.8625,37.57109 72.9375,37.1875 C 72.957498,36.987261 72.9875,36.75867 73.0625,36.6875 C 73.251248,36.340098 73.815,37.22211 74.25,37.625 C 74.529998,37.8952 74.79125,37.97905 75.09375,38.125 C 75.329608,38.22339 75.58662,38.35631 75.84375,38.40625 C 75.508628,38.558578 75.176,38.68737 74.84375,38.84375 C 71.989998,40.174249 69.23,41.61903 66.625,43.28125 C 63.978748,44.942249 61.48375,46.87776 59.25,49.125 C 57.741252,50.583361 56.3425,52.14905 55.71875,54.15625 C 55.192502,55.635109 55.11375,57.34592 55.8125,58.75 C 56.250002,59.753602 57.06,60.61475 58.0625,61.125 C 58.910002,61.60147 59.89125,61.81578 60.875,61.90625 C 61.913752,61.997928 62.9475,61.97863 63.96875,61.90625 C 65.308752,61.815778 66.6325,61.58292 67.9375,61.25 C 69.941248,60.77836 71.86875,60.04514 73.71875,59.1875 C 75.289998,58.46133 76.77625,57.6594 78.25,56.78125 C 78.719998,56.511049 79.215,56.20058 79.6875,55.90625 C 80.254998,55.562471 80.82875,55.20684 81.375,54.84375 C 83.038748,53.76778 84.64875,52.59694 86.21875,51.375 C 88.071248,49.970928 89.87125,48.50521 91.40625,46.71875 C 92.518748,45.45942 93.5,44.0348 93.75,42.375 C 93.974998,41.244739 93.84875,40.02048 93.28125,39 C 92.679998,37.866122 91.54125,37.02833 90.3125,36.5 C 89.719808,36.231359 89.09934,36.03599 88.46875,35.90625 C 88.546638,35.87306 88.64518,35.84985 88.71875,35.8125 C 89.738748,35.375839 90.47625,34.49294 91.34375,33.78125 C 91.574998,33.599109 91.78125,33.46087 91.96875,33.3125 C 92.158748,33.167751 92.36625,33.01142 92.59375,32.84375 C 92.720308,32.76142 92.8701,32.70282 93,32.6875 z M 78.65625,32.8125 C 78.844998,32.7751 79.09125,32.9297 79.28125,33.09375 C 79.657498,33.384451 79.93,33.6275 80.15625,33.9375 C 80.458748,34.321089 80.72875,34.79645 80.84375,35.25 C 80.934578,35.6639 80.91501,36.07361 80.875,36.5 C 79.502328,36.891579 78.15585,37.40226 76.84375,37.96875 C 76.898728,37.886331 76.93094,37.77465 76.96875,37.6875 C 77.059998,37.434189 77.11875,37.20518 77.15625,36.96875 C 77.212498,36.63824 77.285,36.29565 77.34375,35.96875 C 77.397498,35.586369 77.425,35.20804 77.5,34.84375 C 77.614998,34.312999 77.80375,33.84205 78.125,33.3125 C 78.273748,33.076081 78.44875,32.83059 78.65625,32.8125 z M 85.9375,37.125 C 87.223568,37.087682 88.49687,37.26697 89.6875,37.8125 C 90.613748,38.197291 91.51625,38.79981 91.96875,39.65625 C 92.383748,40.38724 92.465,41.3179 92.3125,42.15625 C 92.106248,43.560318 91.22625,44.72095 90.28125,45.78125 C 88.787498,47.492922 87.09,48.91095 85.3125,50.28125 C 83.781248,51.465789 82.17875,52.59716 80.53125,53.65625 C 79.986248,54.002441 79.4525,54.34131 78.90625,54.6875 C 78.432498,54.97821 77.93875,55.28627 77.46875,55.5625 C 76.052498,56.400849 74.5775,57.1609 73.0625,57.875 C 71.304998,58.695249 69.47125,59.43713 67.5625,59.875 C 66.349998,60.166912 65.1125,60.34703 63.84375,60.4375 C 62.917502,60.51108 61.9775,60.52917 61.03125,60.4375 C 60.257502,60.38081 59.475,60.23929 58.8125,59.875 C 58.093752,59.509512 57.51,58.89798 57.1875,58.1875 C 56.641252,57.091019 56.73625,55.74572 57.15625,54.59375 C 57.702502,52.807299 58.95875,51.41218 60.28125,50.09375 C 62.453752,47.959892 64.88625,46.1019 67.4375,44.5 C 69.988748,42.85708 72.67125,41.46986 75.46875,40.15625 C 78.381248,38.77027 81.405,37.49015 84.65625,37.21875 C 85.080938,37.164158 85.50881,37.13744 85.9375,37.125 z"
       transform="translate(299.66272,453.03568)"
       id="path2572"
       style="fill:#008000;fill-opacity:1;fill-rule:nonzero;stroke:none" />
  </g>
</svg>
